<svg width="28" height="25" viewBox="0 0 28 25" fill="none" xmlns="http://www.w3.org/2000/svg">
<path d="M13.3141 3.69145C13.8134 5.41693 12.4932 7.31825 10.9799 7.75913C9.46659 8.2 7.39913 7.28561 6.89983 5.56013C6.40053 3.83465 7.4487 1.44388 8.962 1.003C10.9799 0.415126 12.8148 1.96597 13.3141 3.69145Z" fill="#222327"/>
<path d="M14.1463 3.69145C13.647 5.41693 14.9673 7.31825 16.4806 7.75913C17.9939 8.2 20.0613 7.28561 20.5606 5.56013C21.0599 3.83465 20.0117 1.44388 18.4984 1.003C16.4806 0.415126 14.6456 1.96597 14.1463 3.69145Z" fill="#222327"/>
<path d="M23.5167 16.2966C23.5167 20.6854 19.2133 22.3168 13.3432 22.3168C7.47312 22.3168 3.26709 20.6854 3.26709 16.2966C3.26709 11.1915 7.47312 6.66431 13.3432 6.66431C19.2133 6.66431 23.5167 10.8062 23.5167 16.2966Z" fill="#F3D6DD"/>
<path d="M11.4003 15.4301C11.4003 16.8675 10.4777 18.4444 9.18842 18.4444C7.89912 18.4444 5.81641 17.2732 5.81641 15.126C5.81641 13.109 8.06636 12.3916 10.3913 12.7599C11.8163 12.9857 11.4003 13.9927 11.4003 15.4301Z" fill="#222327"/>
<path d="M10.3219 15.285C10.3219 15.5007 10.2571 15.6754 9.93284 15.6754C9.60861 15.6754 9.54376 15.5007 9.54376 15.285C9.54376 15.0694 9.67345 14.8947 9.93284 14.8947C10.1922 14.8947 10.3219 15.0694 10.3219 15.285Z" fill="white"/>
<path d="M15.3222 15.4301C15.3222 16.8675 16.2448 18.4444 17.5341 18.4444C18.8233 18.4444 20.9061 17.2732 20.9061 15.126C20.9061 13.109 18.6561 12.3916 16.3312 12.7599C14.9062 12.9857 15.3222 13.9927 15.3222 15.4301Z" fill="#222327"/>
<path d="M16.4015 15.2852C16.4015 15.5008 16.4664 15.6756 16.7906 15.6756C17.1148 15.6756 17.1797 15.5008 17.1797 15.2852C17.1797 15.0696 17.05 14.8948 16.7906 14.8948C16.5312 14.8948 16.4015 15.0696 16.4015 15.2852Z" fill="white"/>
<path d="M11.875 17.5098C11.7964 17.3952 11.6399 17.366 11.5253 17.4445C11.4107 17.523 11.3815 17.6795 11.46 17.7941L11.875 17.5098ZM13.3174 17.2004L13.5554 17.1189C13.5205 17.0172 13.4249 16.9489 13.3174 16.9489C13.21 16.9489 13.1144 17.0172 13.0795 17.1189L13.3174 17.2004ZM15.1749 17.7941C15.2534 17.6795 15.2242 17.523 15.1096 17.4445C14.995 17.366 14.8385 17.3952 14.7599 17.5098L15.1749 17.7941ZM11.46 17.7941C11.5295 17.8955 11.6557 18.0315 11.8249 18.1437C11.9957 18.257 12.2239 18.355 12.4925 18.355V17.852C12.3485 17.852 12.2158 17.7994 12.103 17.7246C11.9886 17.6487 11.9086 17.5589 11.875 17.5098L11.46 17.7941ZM12.4925 18.355C12.823 18.355 13.0688 18.1192 13.2218 17.9162C13.3834 17.7019 13.4975 17.4508 13.5554 17.282L13.0795 17.1189C13.0342 17.2511 12.9422 17.4515 12.8201 17.6135C12.6895 17.7867 12.5744 17.852 12.4925 17.852V18.355ZM13.0795 17.282C13.1374 17.4508 13.2515 17.7019 13.4131 17.9162C13.5661 18.1192 13.8119 18.355 14.1424 18.355V17.852C14.0605 17.852 13.9454 17.7867 13.8148 17.6135C13.6927 17.4515 13.6006 17.2511 13.5554 17.1189L13.0795 17.282ZM14.1424 18.355C14.411 18.355 14.6392 18.257 14.81 18.1437C14.9792 18.0315 15.1054 17.8955 15.1749 17.7941L14.7599 17.5098C14.7263 17.5589 14.6463 17.6487 14.5319 17.7246C14.4191 17.7994 14.2863 17.852 14.1424 17.852V18.355Z" fill="#222327"/>
<path d="M14.6906 16.968C14.6906 17.1773 13.7486 17.4435 13.4315 17.5272C13.3638 17.5451 13.2939 17.5451 13.2261 17.5272C12.9091 17.4435 11.967 17.1773 11.967 16.968C11.967 16.7165 12.72 16.4475 13.3288 16.4475C13.9376 16.4475 14.6906 16.7165 14.6906 16.968Z" fill="#222327"/>
<path d="M13.166 10.2763C9.3818 10.2763 7.99111 8.94684 7.76611 8.16923L9.56608 6.21267L13.466 5.5354L18.8659 8.16923C18.5409 8.79634 16.9544 10.2763 13.166 10.2763Z" fill="#222327"/>
<path fill-rule="evenodd" clip-rule="evenodd" d="M13.6898 24.4992C21.5098 24.4992 27.2427 22.2952 27.2427 16.3659C27.2427 8.94844 21.5098 3.35278 13.6898 3.35278C5.86978 3.35278 0.266602 9.46897 0.266602 16.3659C0.266602 22.2952 5.86978 24.4992 13.6898 24.4992ZM13.3823 22.2221C19.1345 22.2221 23.3515 20.6081 23.3515 16.2661C23.3515 10.8342 19.1345 6.73643 13.3823 6.73643C7.6301 6.73643 3.50854 11.2154 3.50854 16.2661C3.50854 20.6081 7.6301 22.2221 13.3823 22.2221Z" fill="white"/>
</svg>
